<svg width="185" height="100" viewBox="0 0 185 100" fill="none" xmlns="http://www.w3.org/2000/svg">
<path d="M3.40625 28.4062C3.40625 27.6146 3.55208 26.9062 3.84375 26.2812C4.13542 25.6354 4.54167 25.0938 5.0625 24.6562C5.58333 24.1979 6.16667 23.8438 6.8125 23.5938C7.47917 23.3229 8.16667 23.1562 8.875 23.0938V26.2188C8.33333 26.3229 7.90625 26.5417 7.59375 26.875C7.30208 27.2083 7.15625 27.6771 7.15625 28.2812C7.15625 28.7812 7.3125 29.1875 7.625 29.5C7.95833 29.7917 8.375 30.0521 8.875 30.2812V33.625C8.52083 33.5208 8.15625 33.4062 7.78125 33.2812C7.42708 33.1354 7.07292 32.9792 6.71875 32.8125C5.61458 32.2292 4.78125 31.6146 4.21875 30.9688C3.67708 30.3229 3.40625 29.4688 3.40625 28.4062ZM13.8438 27.0938C13.2812 26.8021 12.6771 26.5833 12.0312 26.4375C11.4062 26.2917 10.7812 26.1979 10.1562 26.1562V23.0625C11.0938 23.1042 11.9583 23.2396 12.75 23.4688C13.5417 23.6771 14.3125 24.0208 15.0625 24.5L13.8438 27.0938ZM5.0625 37.0625C5.47917 37.3542 5.96875 37.625 6.53125 37.875C7.11458 38.125 7.84375 38.25 8.71875 38.25H8.875V41.1562C8.35417 41.1562 7.875 41.1354 7.4375 41.0938C7 41.0729 6.5625 41.0104 6.125 40.9062C5.70833 40.7812 5.28125 40.6146 4.84375 40.4062C4.40625 40.1979 3.94792 39.9271 3.46875 39.5938L5.0625 37.0625ZM10.1562 30.7812C10.7812 30.9896 11.4167 31.2188 12.0625 31.4688C12.7083 31.7188 13.2917 32.0312 13.8125 32.4062C14.3542 32.7812 14.7917 33.25 15.125 33.8125C15.4792 34.3542 15.6562 35.0417 15.6562 35.875C15.6562 36.6875 15.5104 37.3958 15.2188 38C14.9271 38.6042 14.5312 39.125 14.0312 39.5625C13.5521 40 12.9792 40.3438 12.3125 40.5938C11.6458 40.8438 10.9271 41.0104 10.1562 41.0938V38.125C10.8646 38 11.4062 37.7812 11.7812 37.4688C12.1771 37.1354 12.375 36.6979 12.375 36.1562C12.375 35.6146 12.1562 35.1979 11.7188 34.9062C11.3021 34.5938 10.7812 34.3229 10.1562 34.0938V30.7812ZM20.5625 16.7188H24.3438V41H20.5625V16.7188ZM33.6875 25.3125C34.0417 25.6667 34.3125 26.0833 34.5 26.5625C34.7083 27.0208 34.8542 27.5104 34.9375 28.0312C35.0417 28.5312 35.1042 29.0417 35.125 29.5625C35.1458 30.0833 35.1562 30.5938 35.1562 31.0938V40.375V41H31.3438V31.4062C31.3438 30.6979 31.3125 30.0208 31.25 29.375C31.1875 28.7292 31.0417 28.1562 30.8125 27.6562C30.5833 27.1562 30.2708 26.7708 29.875 26.5C29.4792 26.2083 28.9271 26.0625 28.2188 26.0625C27.9271 26.0625 27.5312 26.1146 27.0312 26.2188C26.5521 26.3021 26.0833 26.4479 25.625 26.6562V24.25C26.1875 23.9583 26.7917 23.7083 27.4375 23.5C28.1042 23.2917 28.75 23.1875 29.375 23.1875C30.3125 23.1875 31.1042 23.3854 31.75 23.7812C32.3958 24.1562 33.0417 24.6667 33.6875 25.3125ZM42.6562 35.6875C42.6562 36.625 42.8438 37.3229 43.2188 37.7812C43.6146 38.2396 44.1771 38.5104 44.9062 38.5938V41.125C44.8229 41.1458 44.6875 41.1562 44.5 41.1562C43.7917 41.1562 43.1042 41.0625 42.4375 40.875C41.7917 40.6875 41.2188 40.3854 40.7188 39.9688C40.2188 39.5521 39.8229 39 39.5312 38.3125C39.2604 37.625 39.125 36.7812 39.125 35.7812C39.125 34.8229 39.3229 34 39.7188 33.3125C40.1354 32.6042 40.6562 32.0312 41.2812 31.5938C41.9271 31.1354 42.6562 30.8021 43.4688 30.5938C44.2812 30.3646 45.1042 30.25 45.9375 30.25H47.3125V32.4688H46.625C46.2083 32.4688 45.7708 32.5104 45.3125 32.5938C44.8542 32.6771 44.4271 32.8333 44.0312 33.0625C43.6354 33.2917 43.3021 33.625 43.0312 34.0625C42.7812 34.4792 42.6562 35.0208 42.6562 35.6875ZM52.375 35.7812C52.375 35.9479 52.3854 36.1979 52.4062 36.5312C52.4271 36.8438 52.4688 37.1667 52.5312 37.5C52.5938 37.8333 52.6875 38.1354 52.8125 38.4062C52.9583 38.6771 53.1458 38.8542 53.375 38.9375L52.375 41.0312C52.1042 41.0312 51.8125 40.9688 51.5 40.8438C51.2083 40.7188 50.9167 40.5417 50.625 40.3125C50.3542 40.0833 50.1146 39.8333 49.9062 39.5625C49.7188 39.2708 49.5729 38.9583 49.4688 38.625C49.2604 39.1458 48.8438 39.6146 48.2188 40.0312C47.6146 40.4271 46.9375 40.7188 46.1875 40.9062V38.5312C46.6875 38.4271 47.1354 38.2292 47.5312 37.9375C47.9479 37.625 48.3021 37.2604 48.5938 36.8438V30.25C48.5938 29.2292 48.5417 28.4167 48.4375 27.8125C48.3333 27.2083 48.1562 26.7708 47.9062 26.5C47.6562 26.2083 47.3438 26.0312 46.9688 25.9688C46.6146 25.8854 46.1875 25.8438 45.6875 25.8438C45.2292 25.8438 44.7917 25.9062 44.375 26.0312C43.9792 26.1354 43.6042 26.2708 43.25 26.4375C42.9167 26.5833 42.6146 26.75 42.3438 26.9375C42.0938 27.125 41.9062 27.2708 41.7812 27.375L40.375 25.2188C40.5833 24.9896 40.8958 24.7604 41.3125 24.5312C41.7292 24.2812 42.2083 24.0625 42.75 23.875C43.2917 23.6875 43.875 23.5417 44.5 23.4375C45.1458 23.3125 45.8125 23.25 46.5 23.25C47.125 23.25 47.7292 23.3125 48.3125 23.4375C48.9167 23.5625 49.4583 23.7708 49.9375 24.0625C50.4375 24.3542 50.8646 24.75 51.2188 25.25C51.5938 25.7292 51.8542 26.3333 52 27.0625C52.1458 27.7917 52.2396 28.5312 52.2812 29.2812C52.3438 30.0104 52.375 30.7396 52.375 31.4688V35.5312V35.7812ZM61.7188 23.375L62.125 25.1875V34.75V34.8125V41H58.3438V23.375H61.7188ZM63.4062 24.1562C63.9271 23.8646 64.5521 23.6458 65.2812 23.5C66.0104 23.3333 67 23.25 68.25 23.25V27.1875C67.6667 27.0208 66.9583 26.9271 66.125 26.9062C65.6667 26.9062 65.1979 26.9479 64.7188 27.0312C64.2604 27.0938 63.8229 27.1979 63.4062 27.3438V24.1562ZM80.4688 23.2188C81.5938 23.3229 82.6042 23.625 83.5 24.125C84.4167 24.625 85.1979 25.2708 85.8438 26.0625C86.4896 26.8542 86.9792 27.7604 87.3125 28.7812C87.6667 29.8021 87.8438 30.8646 87.8438 31.9688C87.8438 32.4688 87.8125 32.9688 87.75 33.4688H77.0312V30.7188H84.25C84.25 30.1771 84.1562 29.6562 83.9688 29.1562C83.8021 28.6562 83.5417 28.1979 83.1875 27.7812C82.8542 27.3438 82.4583 26.9792 82 26.6875C81.5417 26.3958 81.0312 26.2188 80.4688 26.1562V23.2188ZM80.3438 38.0625C80.5729 38.0625 80.8542 38.0417 81.1875 38C81.5417 37.9375 81.9062 37.8438 82.2812 37.7188C82.6771 37.5729 83.0625 37.3958 83.4375 37.1875C83.8333 36.9792 84.1771 36.7292 84.4688 36.4375L85.8438 38.5312C85.1562 39.3854 84.3542 40.0312 83.4375 40.4688C82.5208 40.9062 81.3542 41.125 79.9375 41.125C78.7917 41.125 77.7188 40.8958 76.7188 40.4375C75.7188 39.9583 74.8646 39.3125 74.1562 38.5C73.4479 37.6875 72.8854 36.7396 72.4688 35.6562C72.0521 34.5729 71.8438 33.4062 71.8438 32.1562C71.8438 30.9688 72.0312 29.8438 72.4062 28.7812C72.8021 27.7188 73.3333 26.7917 74 26C74.6667 25.1875 75.4375 24.5312 76.3125 24.0312C77.2083 23.5312 78.1667 23.25 79.1875 23.1875V26.1875C78.4167 26.3333 77.7812 26.6458 77.2812 27.125C76.7812 27.6042 76.3854 28.1562 76.0938 28.7812C75.8229 29.3854 75.625 30.0104 75.5 30.6562C75.3958 31.3021 75.3438 31.8542 75.3438 32.3125C75.3438 33.125 75.4375 33.8854 75.625 34.5938C75.8333 35.2812 76.1458 35.8854 76.5625 36.4062C76.9792 36.9062 77.4896 37.3125 78.0938 37.625C78.7188 37.9167 79.4688 38.0625 80.3438 38.0625ZM97.0625 17.9688V38.1562H107.656V41H93.25V17.9688H97.0625ZM115.062 41H111.25V23.375H115.062V41ZM115.406 17.75C115.406 18.375 115.188 18.9062 114.75 19.3438C114.312 19.7604 113.781 19.9688 113.156 19.9688C112.531 19.9688 112 19.75 111.562 19.3125C111.146 18.875 110.938 18.3542 110.938 17.75C110.938 17.125 111.156 16.5938 111.594 16.1562C112.031 15.7188 112.552 15.5 113.156 15.5C113.781 15.5 114.312 15.7188 114.75 16.1562C115.188 16.5938 115.406 17.125 115.406 17.75ZM123.75 23.375L124.156 25.1562V41H120.375V23.375H123.75ZM133.5 25.3125C133.854 25.6667 134.125 26.0833 134.312 26.5625C134.521 27.0208 134.667 27.5104 134.75 28.0312C134.854 28.5312 134.917 29.0417 134.938 29.5625C134.958 30.0833 134.969 30.5938 134.969 31.0938V40.375V41H131.156V31.4062C131.156 30.6979 131.125 30.0208 131.062 29.375C131 28.7292 130.854 28.1562 130.625 27.6562C130.396 27.1562 130.083 26.7708 129.688 26.5C129.292 26.2083 128.74 26.0625 128.031 26.0625C127.74 26.0625 127.344 26.1146 126.844 26.2188C126.365 26.3021 125.896 26.4479 125.438 26.6562V24.25C126 23.9583 126.604 23.7083 127.25 23.5C127.917 23.2917 128.562 23.1875 129.188 23.1875C130.125 23.1875 130.917 23.3854 131.562 23.7812C132.208 24.1562 132.854 24.6667 133.5 25.3125ZM147.719 32.1562L154.719 41H150.406L145.281 34.25V29.9062L149.656 23.375H153.906L147.719 32.1562ZM140.188 41V16.7188H144V41H140.188Z" fill="#00A8FF" fill-opacity="0.97"/>
<g style="mix-blend-mode:multiply">
<path d="M1.49999 54.2447C0.671567 54.2447 -3.14403e-06 54.9163 8.19017e-09 55.7447C3.17898e-06 56.5731 0.671579 57.2447 1.50001 57.2447L1.49999 54.2447ZM93.5978 55.7443L95.0978 55.7443L95.0978 54.2443L93.5978 54.2443L93.5978 55.7443ZM93.5978 74L92.0978 74L92.0978 76.391L94.2505 75.3505L93.5978 74ZM180.5 32L163.226 30.7298L170.763 46.3245L180.5 32ZM1.50001 57.2447L93.5978 57.2443L93.5978 54.2443L1.49999 54.2447L1.50001 57.2447ZM92.0978 55.7443L92.0978 74L95.0978 74L95.0978 55.7443L92.0978 55.7443ZM94.2505 75.3505L168.998 39.225L167.692 36.5239L92.9451 72.6495L94.2505 75.3505Z" fill="#00A8FF"/>
</g>
</svg>
