<svg width="206" height="41" viewBox="0 0 206 41" fill="none" xmlns="http://www.w3.org/2000/svg">
<path d="M0.5625 35.875C0.5625 35.3906 0.664062 34.9453 0.867188 34.5391C1.08594 34.1172 1.35156 33.7656 1.66406 33.4844C2.32031 32.875 3.00781 32.5703 3.72656 32.5703C4.35156 32.5703 4.66406 32.8906 4.66406 33.5312C4.66406 35.1562 5.20312 36.2891 6.28125 36.9297C6.67188 37.1641 7.07812 37.2812 7.5 37.2812C7.92188 37.2812 8.28125 37.2344 8.57812 37.1406C8.875 37.0469 9.14844 36.8984 9.39844 36.6953C9.96094 36.2422 10.2422 35.7031 10.2422 35.0781C10.2422 34.4531 10.1016 33.8828 9.82031 33.3672C9.53906 32.8359 9.1875 32.2812 8.76562 31.7031L7.42969 29.8281C5.55469 27.3281 4.61719 25.0234 4.61719 22.9141C4.61719 21.1641 5.35938 19.5781 6.84375 18.1562C8.53125 16.5469 10.6953 15.7422 13.3359 15.7422C15.6484 15.7422 17.4531 16.3125 18.75 17.4531C19.8125 18.375 20.3438 19.4297 20.3438 20.6172C20.3438 21.8516 19.875 22.8359 18.9375 23.5703C18.0938 24.2266 17.25 24.4688 16.4062 24.2969C16.0312 24.2188 15.7422 24.0312 15.5391 23.7344C15.3359 23.4219 15.2969 23.0703 15.4219 22.6797C15.5469 22.2891 15.6094 21.8828 15.6094 21.4609C15.6094 21.0391 15.5312 20.6484 15.375 20.2891C15.2188 19.9297 15.0078 19.625 14.7422 19.375C14.1953 18.8594 13.6172 18.6016 13.0078 18.6016C12.4141 18.6016 11.9219 18.6719 11.5312 18.8125C11.1406 18.9375 10.7969 19.125 10.5 19.375C9.89062 19.9375 9.58594 20.6328 9.58594 21.4609C9.58594 22.2734 9.72656 22.9766 10.0078 23.5703C10.2891 24.1641 10.6328 24.7578 11.0391 25.3516C11.4609 25.9453 11.9141 26.5469 12.3984 27.1562C12.8828 27.7656 13.3281 28.4062 13.7344 29.0781C14.7188 30.6562 15.2109 32.0469 15.2109 33.25C15.2109 34.4375 14.9609 35.4375 14.4609 36.25C13.9609 37.0469 13.3125 37.7344 12.5156 38.3125C10.8125 39.5781 8.90625 40.2109 6.79688 40.2109C4.78125 40.2109 3.1875 39.7266 2.01562 38.7578C1.04688 37.9453 0.5625 36.9844 0.5625 35.875ZM38.9531 20.1719C38.0938 20.1719 36.5547 21.4844 34.3359 24.1094L32.3906 26.5L28.6406 31.3984C27.7344 33.1172 27.0234 34.5469 26.5078 35.6875L25.2422 38.4062C24.9141 39.0781 24.625 39.5547 24.375 39.8359C24.1406 40.1016 23.8125 40.2344 23.3906 40.2344C22.9844 40.2344 22.5859 40.1562 22.1953 40C21.8203 39.8594 21.4922 39.6719 21.2109 39.4375C20.6172 38.9375 20.3203 38.3906 20.3203 37.7969C20.3203 37.5625 20.4844 37.1016 20.8125 36.4141L21.75 34.5156C24.6719 28.5 27.3203 20.875 29.6953 11.6406C30.5703 8.23438 31.2031 5.17188 31.5938 2.45312C31.7656 1.14062 32.4062 0.484375 33.5156 0.484375C34.2344 0.484375 34.8281 0.65625 35.2969 1C36.2031 1.67188 36.6406 2.39062 36.6094 3.15625C36.5781 3.92188 36.4688 4.78125 36.2812 5.73438C36.0938 6.6875 35.8516 7.72656 35.5547 8.85156C35.2578 9.96094 34.9219 11.1328 34.5469 12.3672C33.5156 15.5078 32.75 17.7734 32.25 19.1641C30.7188 23.3672 29.7734 25.8281 29.4141 26.5469C29.6484 26.2656 29.9531 25.8828 30.3281 25.3984C33.1719 21.6641 34.9297 19.4375 35.6016 18.7188C36.2734 17.9844 36.8438 17.4219 37.3125 17.0312C38.2969 16.1719 39.5469 15.7422 41.0625 15.7422C42.2969 15.7422 43.2891 16.1562 44.0391 16.9844C44.7422 17.7812 45.0938 18.6562 45.0938 19.6094C45.0938 20.5469 44.9844 21.3984 44.7656 22.1641C44.5625 22.9141 44.2969 23.6797 43.9688 24.4609C43.6406 25.2422 43.2812 26.0469 42.8906 26.875L41.7188 29.3359C40.625 31.8203 40.0781 33.6641 40.0781 34.8672C40.0781 35.7109 40.4219 36.1328 41.1094 36.1328C41.7656 36.1328 42.3594 35.9922 42.8906 35.7109C43.4375 35.4297 43.7891 35.2891 43.9453 35.2891C44.2734 35.2891 44.4375 35.4531 44.4375 35.7812C44.4375 37.1719 43.7344 38.3359 42.3281 39.2734C41.3594 39.9141 40.4766 40.2344 39.6797 40.2344C38.8828 40.2344 38.2188 40.1562 37.6875 40C37.1719 39.8281 36.7109 39.5547 36.3047 39.1797C35.3828 38.3359 34.9219 37.0938 34.9219 35.4531C34.9219 33.6875 35.5 31.4688 36.6562 28.7969L39.1875 23.4062C39.6719 22.4062 39.9141 21.6172 39.9141 21.0391C39.9141 20.4609 39.5938 20.1719 38.9531 20.1719ZM66.7969 33.7656C66.7969 35.2031 67.3047 35.9219 68.3203 35.9219C69.0234 35.9219 69.6016 35.8125 70.0547 35.5938C70.5234 35.375 70.8359 35.2656 70.9922 35.2656C71.3203 35.2656 71.4844 35.4375 71.4844 35.7812C71.4844 37.125 70.7812 38.2812 69.375 39.25C67.8906 40.2656 66.375 40.5156 64.8281 40C63.8125 39.6406 63.0625 38.8672 62.5781 37.6797C62.3438 37.0703 62.2266 36.5156 62.2266 36.0156C62.2266 35.2031 62.3047 34.3438 62.4609 33.4375C61.0078 36.4062 59.2031 38.4531 57.0469 39.5781C56.1875 40.0156 55.2734 40.2344 54.3047 40.2344C53.3359 40.2344 52.4922 40.0391 51.7734 39.6484C51.0703 39.2422 50.4688 38.6875 49.9688 37.9844C48.9531 36.5156 48.4922 34.6719 48.5859 32.4531C48.6797 29.6719 49.5 26.9453 51.0469 24.2734C52.4688 21.7734 54.2656 19.7344 56.4375 18.1562C58.6094 16.5469 60.6406 15.7422 62.5312 15.7422C64.4219 15.7422 65.9453 16.6094 67.1016 18.3438C68.1797 16.6094 69.1328 15.7422 69.9609 15.7422C70.8516 15.7422 71.5234 15.9062 71.9766 16.2344C72.8359 16.8594 73.1406 17.4062 72.8906 17.875C68.9688 25.9062 66.9531 30.9062 66.8438 32.875C66.8125 33.1562 66.7969 33.4531 66.7969 33.7656ZM53.7891 33.8594C53.7891 35.7344 54.3906 36.6719 55.5938 36.6719C56.5156 36.6719 57.6484 35.8906 58.9922 34.3281C60.9609 32.0312 62.7031 28.9375 64.2188 25.0469C64.7031 23.8281 65.1094 22.6094 65.4375 21.3906C65.375 20.3281 64.9297 19.5469 64.1016 19.0469C63.8203 18.875 63.3984 18.7891 62.8359 18.7891C62.2891 18.7891 61.6406 18.9922 60.8906 19.3984C60.1562 19.8047 59.4375 20.3594 58.7344 21.0625C58.0469 21.7656 57.3984 22.6016 56.7891 23.5703C56.1953 24.5234 55.6719 25.5625 55.2188 26.6875C54.2656 29.0938 53.7891 31.4844 53.7891 33.8594ZM74.8125 39.4375C74.5 39.2031 74.25 38.9453 74.0625 38.6641C73.875 38.3672 73.7734 38.1172 73.7578 37.9141C73.7422 37.6953 73.7812 37.4375 73.875 37.1406C73.9844 36.8281 74.125 36.4531 74.2969 36.0156C77.4844 28.1719 79.0781 22.9062 79.0781 20.2188C79.0312 19.4688 78.7734 18.9375 78.3047 18.625L77.8359 18.2969C77.6953 18.1875 77.6172 18 77.6016 17.7344C77.6016 17.4531 77.7031 17.1875 77.9062 16.9375C78.1094 16.6875 78.375 16.4688 78.7031 16.2812C79.375 15.9219 80.0625 15.7422 80.7656 15.7422C81.4844 15.7422 82.0391 15.8203 82.4297 15.9766C82.8359 16.1328 83.1797 16.3438 83.4609 16.6094C84.0547 17.1719 84.3516 17.7656 84.3516 18.3906C84.3672 19.0156 84.2969 19.6484 84.1406 20.2891C84 20.9297 83.8281 21.5625 83.625 22.1875C83.4219 22.7969 83.2188 23.3828 83.0156 23.9453C82.8125 24.4922 82.6797 24.8984 82.6172 25.1641C82.4922 25.7109 82.4453 26.0547 82.4766 26.1953C82.8516 25.8672 83.0781 25.5469 83.1562 25.2344L84.0703 23.5C86.1016 19.8438 88.0859 17.4219 90.0234 16.2344C90.5859 15.9062 91.2578 15.7422 92.0391 15.7422C92.8359 15.7422 93.4766 16.0234 93.9609 16.5859C94.4453 17.1328 94.6953 17.7422 94.7109 18.4141C94.7422 19.0859 94.6953 19.6484 94.5703 20.1016C94.4609 20.5391 94.2891 20.9531 94.0547 21.3438C93.5391 22.2188 92.9141 22.6562 92.1797 22.6562C91.9766 22.6562 91.7891 22.5859 91.6172 22.4453L91.1016 22C90.5859 21.5469 90.0859 21.3203 89.6016 21.3203C89.1328 21.3203 88.5547 21.6328 87.8672 22.2578C87.1953 22.8828 86.4922 23.6875 85.7578 24.6719C83.2891 27.9375 81.2734 31.5938 79.7109 35.6406L78.6797 38.3594C78.4141 39.0312 78.1797 39.5156 77.9766 39.8125C77.7734 40.0938 77.4688 40.2344 77.0625 40.2344C76.6719 40.2344 76.2734 40.1562 75.8672 40C75.4766 39.8594 75.125 39.6719 74.8125 39.4375ZM94.5469 31.7969C94.6094 30.4375 94.8359 29.1406 95.2266 27.9062C95.6172 26.6562 96.1406 25.4531 96.7969 24.2969C97.4531 23.125 98.2188 22.0234 99.0938 20.9922C99.9844 19.9453 100.945 19.0312 101.977 18.25C104.211 16.5781 106.469 15.7422 108.75 15.7422C111.422 15.7422 113.203 16.8438 114.094 19.0469C114.406 19.7969 114.555 20.6875 114.539 21.7188C114.523 22.7344 114.328 23.6797 113.953 24.5547C113.578 25.4141 113.055 26.2031 112.383 26.9219C111.727 27.625 110.938 28.2578 110.016 28.8203C109.109 29.3828 108.117 29.8594 107.039 30.25C104.82 31.0312 102.445 31.4375 99.9141 31.4688C99.8516 31.6875 99.8125 32.0156 99.7969 32.4531C99.7812 32.8906 99.8281 33.3828 99.9375 33.9297C100.047 34.4609 100.234 34.9375 100.5 35.3594C101.062 36.2969 101.875 36.7656 102.938 36.7656C104.75 36.7656 106.516 36.2344 108.234 35.1719C108.844 34.8125 109.336 34.4453 109.711 34.0703C110.102 33.6797 110.438 33.4844 110.719 33.4844C111 33.4844 111.242 33.6562 111.445 34C111.664 34.3281 111.773 34.7031 111.773 35.125C111.773 35.9531 111.539 36.6719 111.07 37.2812C109.102 39.25 106.172 40.2344 102.281 40.2344C99.9844 40.2344 98.1406 39.5469 96.75 38.1719C95.1875 36.6094 94.4531 34.4844 94.5469 31.7969ZM108.234 18.8594C106.594 18.8594 105.016 19.9844 103.5 22.2344C102.219 24.1719 101.188 26.4688 100.406 29.125C103.016 28.8594 105.281 27.8281 107.203 26.0312C108.969 24.3438 109.852 22.7266 109.852 21.1797C109.852 19.6328 109.312 18.8594 108.234 18.8594ZM136.336 6.71875C134.242 6.71875 132.125 9.28125 129.984 14.4062L126.094 24.25C123.625 30.5156 121.258 34.6328 118.992 36.6016C122.242 35.4609 126.047 34.7031 130.406 34.3281C131.031 34.2656 131.641 34.2344 132.234 34.2344C132.828 34.2344 133.461 34.3359 134.133 34.5391C134.82 34.7266 135.414 35.0156 135.914 35.4062C136.992 36.25 137.531 37.4375 137.531 38.9688C137.531 39.8125 137.219 40.2344 136.594 40.2344C136.25 40.2344 135.914 40.1484 135.586 39.9766C135.258 39.8047 134.883 39.6406 134.461 39.4844C134.055 39.3281 133.578 39.1797 133.031 39.0391C131.781 38.7109 130.492 38.5469 129.164 38.5469C127.852 38.5469 126.586 38.6406 125.367 38.8281C124.148 39 123 39.1875 121.922 39.3906L118.898 39.9766C117.977 40.1484 117.273 40.2344 116.789 40.2344C116.32 40.2344 115.953 40.1328 115.688 39.9297C115.438 39.7109 115.203 39.4375 114.984 39.1094C114.516 38.3906 114.281 37.8047 114.281 37.3516C114.281 36.6172 114.453 36.1484 114.797 35.9453C116.141 35.2266 117.656 32.4375 119.344 27.5781C120.906 23.0781 121.969 20.0625 122.531 18.5312C123.109 17 123.742 15.5078 124.43 14.0547C125.117 12.5859 125.859 11.2109 126.656 9.92969C127.469 8.64844 128.359 7.53125 129.328 6.57812C131.406 4.51562 133.695 3.48438 136.195 3.48438C137.961 3.48438 139.445 4.24219 140.648 5.75781C141.742 7.14844 142.289 8.75781 142.289 10.5859C142.289 13.0703 141.367 15.6406 139.523 18.2969C138.445 19.8438 137.281 20.9688 136.031 21.6719C135.422 22 134.867 22.1641 134.367 22.1641C133.883 22.1641 133.453 22.0703 133.078 21.8828C132.703 21.6797 132.375 21.4375 132.094 21.1562C131.516 20.5469 131.227 20 131.227 19.5156C131.227 19.0156 131.352 18.6875 131.602 18.5312C133.492 17.3594 135.094 15.9531 136.406 14.3125C137.828 12.5469 138.539 10.8438 138.539 9.20312C138.539 7.54687 137.805 6.71875 136.336 6.71875ZM154.453 10.2578C154.109 10.6172 153.719 10.9141 153.281 11.1484C152.844 11.3672 152.383 11.5078 151.898 11.5703C151.414 11.6172 150.953 11.5391 150.516 11.3359C150.094 11.1328 149.727 10.8438 149.414 10.4688C148.742 9.6875 148.406 8.89844 148.406 8.10156C148.406 7.30469 148.531 6.71094 148.781 6.32031C149.047 5.91406 149.375 5.58594 149.766 5.33594C150.516 4.85156 151.219 4.60938 151.875 4.60938C152.547 4.60938 153.062 4.65625 153.422 4.75C153.797 4.84375 154.141 5 154.453 5.21875C155.219 5.73438 155.602 6.36719 155.602 7.11719C155.602 7.85156 155.492 8.46875 155.273 8.96875C155.07 9.45312 154.797 9.88281 154.453 10.2578ZM149.648 35.6172C150.055 35.6172 150.258 35.8828 150.258 36.4141C150.258 37.1172 149.938 37.8438 149.297 38.5938C148.359 39.6875 147.102 40.2344 145.523 40.2344C143.711 40.2344 142.469 39.5 141.797 38.0312C141.547 37.5156 141.422 36.8906 141.422 36.1562C141.422 35.4219 141.547 34.6094 141.797 33.7188C142.062 32.8125 142.383 31.8672 142.758 30.8828C143.148 29.8828 143.57 28.875 144.023 27.8594L145.266 24.9062C146.172 22.7031 146.625 21.25 146.625 20.5469C146.625 19.8438 146.547 19.3828 146.391 19.1641C146.25 18.9297 146.094 18.75 145.922 18.625L145.453 18.2969C145.297 18.1875 145.219 18 145.219 17.7344C145.219 17.4531 145.32 17.1875 145.523 16.9375C145.742 16.6875 146.023 16.4688 146.367 16.2812C147.07 15.9219 147.891 15.7422 148.828 15.7422C151.125 15.7422 152.273 16.3438 152.273 17.5469C152.273 18.9531 151.906 20.5625 151.172 22.375C150.438 24.1719 149.812 25.625 149.297 26.7344L147.891 29.9688C146.859 32.3438 146.344 34.0547 146.344 35.1016C146.344 35.7891 146.688 36.1328 147.375 36.1328C148.047 36.1328 148.555 36.0469 148.898 35.875C149.242 35.7031 149.492 35.6172 149.648 35.6172ZM172.43 20.1719C171.945 20.1719 171.258 20.6406 170.367 21.5781C169.477 22.5 168.703 23.3438 168.047 24.1094L166.055 26.5L162.211 31.3984C161.305 33.1172 160.594 34.5469 160.078 35.6875L158.812 38.4062C158.484 39.0781 158.195 39.5547 157.945 39.8359C157.711 40.1016 157.383 40.2344 156.961 40.2344C156.555 40.2344 156.156 40.1562 155.766 40C155.391 39.8594 155.062 39.6719 154.781 39.4375C154.188 38.9375 153.891 38.3906 153.891 37.7969C153.891 37.5625 154.062 37.1016 154.406 36.4141L155.297 34.5156C155.578 33.9531 155.906 33.2344 156.281 32.3594L157.594 29.1484C159.438 24.5391 160.359 21.5625 160.359 20.2188C160.359 19.5 160.125 18.9688 159.656 18.625L159.188 18.2969C159.031 18.1875 158.953 18 158.953 17.7344C158.953 17.4531 159.055 17.1875 159.258 16.9375C159.477 16.6875 159.758 16.4688 160.102 16.2812C160.805 15.9219 161.508 15.7422 162.211 15.7422C162.93 15.7422 163.484 15.8203 163.875 15.9766C164.266 16.1328 164.594 16.3438 164.859 16.6094C165.438 17.1562 165.727 17.7266 165.727 18.3203C165.727 18.9141 165.648 19.5156 165.492 20.125C165.352 20.7188 165.164 21.3281 164.93 21.9531C164.711 22.5625 164.477 23.1641 164.227 23.7578C163.977 24.3516 163.75 24.8672 163.547 25.3047L163.078 26.3125C162.953 26.5625 162.922 26.6406 162.984 26.5469C164.719 24.1406 165.859 22.5938 166.406 21.9062L168.047 19.9375C169.25 18.5312 170.195 17.6016 170.883 17.1484C172.273 16.2109 173.367 15.7422 174.164 15.7422C174.961 15.7422 175.633 15.8438 176.18 16.0469C176.727 16.25 177.203 16.5391 177.609 16.9141C178.469 17.7109 178.898 18.7266 178.898 19.9609C178.898 21.1953 178.617 22.4844 178.055 23.8281C177.492 25.1719 177 26.2656 176.578 27.1094C176.172 27.9375 175.781 28.7812 175.406 29.6406C174.234 32.25 173.648 34.1484 173.648 35.3359C173.648 35.8672 174.07 36.1328 174.914 36.1328C175.57 36.1328 176.164 35.9922 176.695 35.7109C177.242 35.4297 177.594 35.2891 177.75 35.2891C178.078 35.2891 178.242 35.4531 178.242 35.7812C178.242 37.1719 177.531 38.3359 176.109 39.2734C175.156 39.9141 174.281 40.2344 173.484 40.2344C172.688 40.2344 172.023 40.1484 171.492 39.9766C170.977 39.8047 170.516 39.5312 170.109 39.1562C169.188 38.3281 168.727 37.1719 168.727 35.6875C168.727 33.875 169.297 31.6094 170.438 28.8906C171.266 27.0312 171.852 25.7578 172.195 25.0703L172.992 23.4062C173.477 22.4062 173.719 21.6172 173.719 21.0391C173.719 20.4609 173.289 20.1719 172.43 20.1719ZM198 40.2109C194.453 40.2109 191.625 36.8438 189.516 30.1094C188.688 31.6406 188 33.0312 187.453 34.2812L186.047 37.4688C185.641 38.3438 185.258 39.0234 184.898 39.5078C184.555 39.9922 184.164 40.2344 183.727 40.2344C183.289 40.2344 182.891 40.1562 182.531 40C182.172 39.8594 181.859 39.6719 181.594 39.4375C181.047 38.9375 180.773 38.3906 180.773 37.7969C180.773 37.5625 180.938 37.1016 181.266 36.4141L182.203 34.5156C185.125 28.5 187.773 20.875 190.148 11.6406C191.023 8.23438 191.656 5.17188 192.047 2.45312C192.219 1.14062 192.859 0.484375 193.969 0.484375C194.625 0.484375 195.172 0.65625 195.609 1C196.453 1.67188 196.859 2.39844 196.828 3.17969C196.797 3.94531 196.688 4.8125 196.5 5.78125C196.328 6.75 196.094 7.8125 195.797 8.96875C195.5 10.1094 195.164 11.3047 194.789 12.5547C193.773 15.8203 193.016 18.1484 192.516 19.5391L190.312 25.6094C190.031 26.3281 189.812 26.8516 189.656 27.1797C193.281 25.7422 196 24.1172 197.812 22.3047C198.906 21.2109 199.453 20.1875 199.453 19.2344C199.453 18.75 199.289 18.3984 198.961 18.1797C198.648 17.9609 198.43 17.7969 198.305 17.6875C198.195 17.5625 198.188 17.3516 198.281 17.0547C198.391 16.7422 198.688 16.4453 199.172 16.1641C199.656 15.8828 200.242 15.7422 200.93 15.7422C201.617 15.7422 202.188 15.8047 202.641 15.9297C203.109 16.0547 203.516 16.25 203.859 16.5156C204.625 17.0625 205.008 17.8359 205.008 18.8359C205.008 19.8359 204.797 20.7578 204.375 21.6016C203.953 22.4297 203.297 23.2344 202.406 24.0156C200.641 25.5156 197.812 26.9688 193.922 28.375C194.406 30.4531 195.297 32.2812 196.594 33.8594C197.828 35.3594 198.961 36.1094 199.992 36.1094C200.539 36.1094 201.008 36.0156 201.398 35.8281L202.242 35.4062C202.414 35.3125 202.578 35.2656 202.734 35.2656C203.125 35.2656 203.32 35.5 203.32 35.9688C203.32 36.375 203.25 36.7344 203.109 37.0469C202.969 37.3438 202.766 37.6641 202.5 38.0078C202.25 38.3516 201.922 38.6875 201.516 39.0156C200.5 39.8125 199.328 40.2109 198 40.2109Z" fill="#00A8FF"/>
</svg>
